<svg role="img" viewBox="0 0 30 30" xmlns="http://www.w3.org/2000/svg" id="Elastic--Streamline-Simple-Icons" height="30" width="30">
  <desc>
    Elastic Streamline Icon: https://streamlinehq.com
  </desc>
  <title>Elastic</title>
  <path d="m25.43125 20.412499999999998 -4.94875 -1.1575 -1.3125 -2.5124999999999997 6.4712499999999995 -5.66875a4.952500000000001 4.952500000000001 0 0 1 3.1987500000000004 4.6274999999999995 5.0075 5.0075 0 0 1 -3.40875 4.7125m-3.7199999999999998 5.85c-0.77 0 -1.525 -0.25875 -2.1425 -0.7337499999999999l0.9775 -5.0962499999999995 4.495 1.05125c0.14375000000000002 0.3875 0.21499999999999997 0.8025 0.21499999999999997 1.23375a3.54875 3.54875 0 0 1 -3.545 3.545m-3.29625 -0.7324999999999999a7.4 7.4 0 0 1 -6.135000000000001 3.25A7.43375 7.43375 0 0 1 5 19.881249999999998l6.45875 -5.8375 6.59 3.00375 1.45875 2.7875zM1.1600000000000001 14.303749999999999a5.008749999999999 5.008749999999999 0 0 1 3.4074999999999998 -4.7125l4.9375 1.16625 1.15875 2.475 -6.3125 5.706250000000001a4.9625 4.9625 0 0 1 -3.19125 -4.635m7.12875 -10.5625a3.5512500000000005 3.5512500000000005 0 0 1 2.15375 0.725l-0.9862500000000001 5.114999999999999 -4.4975 -1.0625a3.5525 3.5525 0 0 1 -0.21499999999999997 -1.2325A3.55 3.55 0 0 1 8.2875 3.74m3.325 0.7374999999999999A7.4 7.4 0 0 1 25.125 8.6625c0 0.5 -0.0475 0.9762500000000001 -0.14250000000000002 1.4549999999999998l-6.62375 5.80375 -6.563750000000001 -2.9925 -1.2825 -2.7375zM30 15.71375a5.90375 5.90375 0 0 0 -3.9050000000000002 -5.5675 8.36875 8.36875 0 0 0 0.1575 -1.6125A8.48625 8.48625 0 0 0 17.775000000000002 0.05875 8.46125 8.46125 0 0 0 10.908750000000001 3.5749999999999997a4.4825 4.4825 0 0 0 -2.7550000000000003 -0.9425A4.505 4.505 0 0 0 3.9375 8.69875 5.9825 5.9825 0 0 0 0 14.288749999999999 5.90875 5.90875 0 0 0 3.9237499999999996 19.875a8.595 8.595 0 0 0 -0.155 1.6112499999999998 8.466249999999999 8.466249999999999 0 0 0 8.456249999999999 8.456249999999999c2.7375 0 5.2749999999999995 -1.315 6.862500000000001 -3.53a4.46 4.46 0 0 0 2.75875 0.96125 4.50375 4.50375 0 0 0 4.2175 -6.0675A5.98125 5.98125 0 0 0 30 15.715" fill="#888888" stroke-width="1.25"></path>
</svg>